<svg width="520" height="479" viewBox="0 0 520 479" fill="none" xmlns="http://www.w3.org/2000/svg">
<path d="M441.156 180.781L457.211 178.896L459.646 161.126L444.568 154.961C444.261 149.15 443.245 143.398 441.544 137.833L453.84 126.935L445.638 110.983L429.49 114.714C423.402 106.912 415.751 100.467 407.026 95.793L408.083 79.0387L390.971 73.5564L382.034 87.8906C376.408 87.2089 370.721 87.2089 365.096 87.8906L356.279 73.396L339.127 78.7445L340.036 95.6994C335.04 98.33 330.374 101.544 326.135 105.273L310.575 98.4539L299.578 112.628L310 125.932C308.157 129.473 306.617 133.163 305.398 136.963C304.876 138.568 304.434 140.199 304.06 141.817L287.536 145.133L286.653 163.051L302.588 167.945C303.331 173.64 304.76 179.226 306.843 184.579L295.43 196.613L304.996 211.803L320.596 206.789C324.517 211.098 328.952 214.911 333.802 218.141L331.433 234.187L347.984 241.14L357.764 228.303C363.511 229.603 369.4 230.178 375.29 230.015L382.529 244.376L400.069 240.592L400.724 224.546C406.184 222.279 411.343 219.346 416.084 215.814L430.225 223.409L442.414 210.252L433.758 196.733C436.87 191.74 439.355 186.383 441.156 180.781ZM415.977 172.371C413.272 180.804 408.127 188.246 401.19 193.757C394.254 199.268 385.839 202.599 377.009 203.331C368.178 204.062 359.329 202.16 351.58 197.866C343.83 193.572 337.529 187.078 333.472 179.205C329.416 171.331 327.786 162.433 328.789 153.634C329.792 144.836 333.382 136.532 339.107 129.772C344.831 123.013 352.433 118.102 360.95 115.659C369.467 113.217 378.517 113.353 386.957 116.051C392.564 117.843 397.762 120.721 402.255 124.522C406.748 128.323 410.448 132.971 413.143 138.201C415.838 143.432 417.475 149.142 417.962 155.004C418.448 160.867 417.773 166.769 415.977 172.371Z" fill="white"/>
<path d="M100.643 182.172L106.677 181.463L107.587 174.778L101.927 172.465C101.808 170.278 101.426 168.115 100.79 166.02L105.406 161.928L102.329 155.938L96.2545 157.275C93.9606 154.346 91.0807 151.928 87.7988 150.174L88.1868 143.877L81.7782 141.817L78.4066 147.166C76.2959 146.912 74.1623 146.912 72.0515 147.166L68.7335 141.724L62.2981 143.716L62.6326 150.094C60.7591 151.086 59.008 152.293 57.4147 153.691L51.568 151.124L47.4338 156.472L51.3539 161.473C50.6579 162.803 50.0761 164.19 49.6146 165.618C49.4273 166.22 49.2667 166.835 49.1062 167.45L42.8982 168.694L42.5771 175.379L48.464 177.305C48.7409 179.449 49.2801 181.55 50.0695 183.563L45.7882 188.082L49.3738 193.778L55.2472 191.906C56.7209 193.526 58.3879 194.959 60.2109 196.172L59.3145 202.216L65.5358 204.89L69.2017 200.063C71.3603 200.552 73.5718 200.768 75.7843 200.705L78.4601 206.053L85.0427 204.623L85.2969 198.606C87.3476 197.757 89.2846 196.656 91.0633 195.33L96.415 198.178L101.004 193.23L97.7396 188.163C98.9479 186.291 99.9229 184.28 100.643 182.172ZM91.1837 179.016C90.1667 182.188 88.2316 184.986 85.6231 187.058C83.0146 189.129 79.85 190.382 76.5294 190.656C73.2088 190.93 69.8815 190.213 66.9683 188.597C64.0551 186.981 61.6869 184.538 60.1632 181.576C58.6396 178.615 58.0289 175.269 58.4084 171.96C58.788 168.652 60.1407 165.531 62.2955 162.991C64.4503 160.451 67.3104 158.607 70.514 157.692C73.7175 156.777 77.1207 156.832 80.2931 157.85C84.5332 159.228 88.0541 162.229 90.0851 166.197C92.1162 170.164 92.492 174.773 91.1302 179.016H91.1837Z" fill="white"/>
<path opacity="0.5" d="M441.156 180.781L457.211 178.896L459.646 161.126L444.568 154.961C444.261 149.15 443.245 143.398 441.544 137.833L453.84 126.935L445.638 110.983L429.49 114.714C423.402 106.912 415.751 100.467 407.026 95.793L408.083 79.0387L390.971 73.5564L382.034 87.8906C376.408 87.2089 370.721 87.2089 365.096 87.8906L356.279 73.396L339.127 78.7445L340.036 95.6994C335.04 98.33 330.374 101.544 326.135 105.273L310.575 98.4539L299.578 112.628L310 125.932C308.157 129.473 306.617 133.163 305.398 136.963C304.876 138.568 304.434 140.199 304.06 141.817L287.536 145.133L286.653 163.051L302.588 167.945C303.331 173.64 304.76 179.226 306.843 184.579L295.43 196.613L304.996 211.803L320.596 206.789C324.517 211.098 328.952 214.911 333.802 218.141L331.433 234.187L347.984 241.14L357.764 228.303C363.511 229.603 369.4 230.178 375.29 230.015L382.529 244.376L400.069 240.592L400.724 224.546C406.184 222.279 411.343 219.346 416.084 215.814L430.225 223.409L442.414 210.252L433.758 196.733C436.87 191.74 439.355 186.383 441.156 180.781ZM415.977 172.371C413.272 180.804 408.127 188.246 401.19 193.757C394.254 199.268 385.839 202.599 377.009 203.331C368.178 204.062 359.329 202.16 351.58 197.866C343.83 193.572 337.529 187.078 333.472 179.205C329.416 171.331 327.786 162.433 328.789 153.634C329.792 144.836 333.382 136.532 339.107 129.772C344.831 123.013 352.433 118.102 360.95 115.659C369.467 113.217 378.517 113.353 386.957 116.051C392.564 117.843 397.762 120.721 402.255 124.522C406.748 128.323 410.448 132.971 413.143 138.201C415.838 143.432 417.475 149.142 417.962 155.004C418.448 160.867 417.773 166.769 415.977 172.371Z" fill="white"/>
<path opacity="0.5" d="M100.643 182.172L106.677 181.463L107.587 174.778L101.927 172.465C101.808 170.278 101.426 168.115 100.79 166.02L105.406 161.928L102.329 155.938L96.2545 157.275C93.9606 154.346 91.0807 151.928 87.7988 150.174L88.1868 143.877L81.7782 141.817L78.4066 147.166C76.2959 146.912 74.1623 146.912 72.0515 147.166L68.7335 141.724L62.2981 143.716L62.6326 150.094C60.7591 151.086 59.008 152.293 57.4147 153.691L51.568 151.124L47.4338 156.472L51.3539 161.473C50.6579 162.803 50.0761 164.19 49.6146 165.618C49.4273 166.22 49.2667 166.835 49.1062 167.45L42.8982 168.694L42.5771 175.379L48.464 177.305C48.7409 179.449 49.2801 181.55 50.0695 183.563L45.7882 188.082L49.3738 193.778L55.2472 191.906C56.7209 193.526 58.3879 194.959 60.2109 196.172L59.3145 202.216L65.5358 204.89L69.2017 200.063C71.3603 200.552 73.5718 200.768 75.7843 200.705L78.4601 206.053L85.0427 204.623L85.2969 198.606C87.3476 197.757 89.2846 196.656 91.0633 195.33L96.415 198.178L101.004 193.23L97.7396 188.163C98.9479 186.291 99.9229 184.28 100.643 182.172ZM91.1837 179.016C90.1667 182.188 88.2316 184.986 85.6231 187.058C83.0146 189.129 79.85 190.382 76.5294 190.656C73.2088 190.93 69.8815 190.213 66.9683 188.597C64.0551 186.981 61.6869 184.538 60.1632 181.576C58.6396 178.615 58.0289 175.269 58.4084 171.96C58.788 168.652 60.1407 165.531 62.2955 162.991C64.4503 160.451 67.3104 158.607 70.514 157.692C73.7175 156.777 77.1207 156.832 80.2931 157.85C84.5332 159.228 88.0541 162.229 90.0851 166.197C92.1162 170.164 92.492 174.773 91.1302 179.016H91.1837Z" fill="white"/>
<path d="M316.168 56.575L321.346 55.3449L321.466 49.4481L316.302 48.004C315.999 46.1137 315.464 44.2679 314.709 42.5084L318.308 38.497L315.031 33.603L309.893 35.4215C307.618 33.1008 304.884 31.2792 301.865 30.073L301.571 24.564L295.778 23.4141L293.303 28.4818C291.439 28.4696 289.58 28.676 287.764 29.0969L284.339 24.7111L278.987 27.0912L279.937 32.6002C278.402 33.6483 276.997 34.8736 275.749 36.2506L270.398 34.6193L267.347 39.6603L271.254 43.6717C270.786 44.8956 270.424 46.1571 270.17 47.4424C270.063 47.9906 269.983 48.5389 269.916 49.0871L264.645 50.7986L265.033 56.682L270.384 57.6715C270.848 59.5072 271.53 61.2805 272.418 62.9532L269.14 67.3123L272.846 71.912L277.743 69.679C279.19 70.9369 280.785 72.0145 282.492 72.8881L282.332 78.2367L288.005 79.8813L290.68 75.3083C292.608 75.5208 294.555 75.4849 296.474 75.2014L299.39 79.6273L304.969 77.7152L304.581 72.4602C306.278 71.5121 307.851 70.3579 309.264 69.0238L314.174 70.9626L317.653 66.2024L314.308 62.1108C315.153 60.3488 315.777 58.4896 316.168 56.575ZM307.619 54.7833C307.053 57.6339 305.655 60.2531 303.601 62.3103C301.547 64.3675 298.929 65.7706 296.078 66.3424C293.227 66.9142 290.271 66.6291 287.582 65.5231C284.893 64.4171 282.592 62.5397 280.969 60.128C279.347 57.7163 278.476 54.8783 278.466 51.9722C278.456 49.066 279.307 46.2221 280.913 43.7992C282.519 41.3764 284.807 39.4832 287.488 38.3587C290.169 37.2341 293.124 36.9286 295.979 37.4807C297.882 37.8488 299.693 38.589 301.31 39.6588C302.926 40.7286 304.314 42.107 305.396 43.7147C306.478 45.3225 307.231 47.1279 307.612 49.0274C307.994 50.9269 307.996 52.883 307.619 54.7833Z" fill="#393939"/>
<path d="M110.998 134.409C110.998 134.409 98.8099 162.222 100.643 163.907C102.476 165.591 116.564 192.949 118.865 193.043C121.167 193.136 120.364 185.929 120.364 185.929L133.997 173.053L110.998 134.409Z" fill="#393939"/>
<path d="M165.037 117.562C165.037 117.562 191.515 132.458 191.073 134.945C190.631 137.432 195.823 167.718 194.03 169.175C192.237 170.633 188.558 164.388 188.558 164.388L169.921 162.302L165.037 117.562Z" fill="#393939"/>
<path d="M447.164 320.967C432.928 280.398 388.429 341.732 365.791 356.026C343.154 370.32 347.061 293.181 311.405 318.399C275.749 343.618 273.943 414.473 240.308 412.427C225.912 411.544 217.925 365.493 208.011 338.256L160.381 147.045L134.867 158.237L197.401 346.773C200.465 362.913 218.326 405.955 217.403 415.034C216.172 427.068 187.193 425.638 158.534 416.371C110.369 400.901 88.4541 317.918 50.1629 307.555C31.927 302.621 21.4913 313.88 14.0391 327.104C15.7159 330.83 17.5355 334.436 19.4978 337.922C56.3574 402.96 116.952 434.637 206.887 438.02C296.822 441.403 360.105 447.5 436.875 377.915C439.292 375.722 441.62 373.472 443.859 371.163C448.876 355.492 452.582 336.504 447.164 320.967Z" fill="white"/>
<path opacity="0.5" d="M447.164 320.967C432.928 280.398 388.429 341.732 365.791 356.026C343.154 370.32 347.061 293.181 311.405 318.399C275.749 343.618 273.943 414.473 240.308 412.427C225.912 411.544 217.925 365.493 208.011 338.256L160.381 147.045L134.867 158.237L197.401 346.773C200.465 362.913 218.326 405.955 217.403 415.034C216.172 427.068 187.193 425.638 158.534 416.371C110.369 400.901 88.4541 317.918 50.1629 307.555C31.927 302.621 21.4913 313.88 14.0391 327.104C15.7159 330.83 17.5355 334.436 19.4978 337.922C56.3574 402.96 116.952 434.637 206.887 438.02C296.822 441.403 360.105 447.5 436.875 377.915C439.292 375.722 441.62 373.472 443.859 371.163C448.876 355.492 452.582 336.504 447.164 320.967Z" fill="white"/>
<path d="M171.244 158.932C171.244 158.932 163.217 74.6928 156.741 51.3331C150.266 27.9733 115.052 -4.96038 102.382 0.628851C89.7115 6.21808 84.3197 50.5308 87.4905 73.5429C90.6614 96.555 126.411 173.173 137.636 180.514C148.861 187.855 170.308 190.034 171.244 158.932Z" fill="white"/>
<path d="M171.244 158.933C171.244 158.933 171.244 158.384 171.097 157.355C162.655 185.06 143.951 180.514 131.709 173.788C133.305 176.326 135.307 178.585 137.636 180.474C148.808 187.841 170.308 190.034 171.244 158.933Z" fill="#393939"/>
<path d="M102.382 0.628874C90.555 5.85708 85.0829 44.7544 86.9693 68.5955C91.3706 72.2764 96.486 75.0079 101.994 76.6183C123.535 82.9029 146.4 70.9355 156.153 49.4477C148.34 26.2083 114.718 -4.81327 102.382 0.628874Z" fill="#393939"/>
<path d="M129.141 20.0042C138.205 29.2023 145.869 39.6814 151.885 51.106" stroke="white" stroke-linecap="round" stroke-linejoin="round"/>
<path d="M117.354 9.07965C117.354 9.07965 119.655 10.8982 123.187 14.1875" stroke="white" stroke-linecap="round" stroke-linejoin="round"/>
<path d="M167.003 154.132L167.525 158.077" stroke="#393939" stroke-linecap="round" stroke-linejoin="round"/>
<path d="M165.411 142.085L166.588 151.003" stroke="#393939" stroke-linecap="round" stroke-linejoin="round"/>
<path d="M156.246 72.9014L164.367 134.209" stroke="#393939" stroke-linecap="round" stroke-linejoin="round"/>
<path d="M154.494 59.7304L155.23 65.2394" stroke="#393939" stroke-linecap="round" stroke-linejoin="round"/>
<path d="M98.8896 97.7451L113.981 131.815" stroke="#393939" stroke-linecap="round" stroke-linejoin="round"/>
<path d="M115.547 135.974L118.637 142.9" stroke="#393939" stroke-linecap="round" stroke-linejoin="round"/>
<path d="M152.209 108.656C155.314 98.0146 149.678 87.0113 139.619 84.0792C129.56 81.1472 118.889 87.3968 115.783 98.038C112.678 108.679 118.314 119.682 128.373 122.615C138.432 125.547 149.103 119.297 152.209 108.656Z" fill="#393939"/>
<path d="M146.239 108.669C145.446 110.902 144.016 112.854 142.125 114.284C140.234 115.713 137.965 116.558 135.6 116.713C133.234 116.868 130.875 116.328 128.813 115.158C126.751 113.988 125.077 112.24 123.998 110.13C122.919 108.021 122.483 105.641 122.742 103.286C123.001 100.93 123.945 98.7027 125.456 96.8775C126.968 95.0523 128.982 93.7097 131.249 93.0156C133.516 92.3214 135.936 92.3061 138.212 92.9715C141.356 93.9945 143.965 96.221 145.47 99.1633C146.975 102.106 147.251 105.524 146.239 108.669Z" fill="white"/>
<path d="M147.296 155.256L161.772 192.482C161.838 192.692 161.948 192.886 162.094 193.051C162.24 193.216 162.419 193.349 162.619 193.441C162.819 193.533 163.037 193.582 163.257 193.585C163.478 193.588 163.697 193.545 163.899 193.458C164.322 193.264 164.656 192.918 164.834 192.49C165.013 192.061 165.023 191.581 164.863 191.145L152.5 152.983C152.37 152.625 152.165 152.3 151.899 152.028C151.633 151.757 151.312 151.545 150.957 151.407C150.603 151.269 150.223 151.208 149.843 151.229C149.463 151.249 149.092 151.35 148.754 151.525C148.113 151.878 147.616 152.445 147.349 153.127C147.083 153.808 147.064 154.562 147.296 155.256Z" fill="#393939"/>
<path d="M381.378 57.8049L383.866 62.4314" stroke="#393939" stroke-linecap="round" stroke-linejoin="round"/>
<path d="M390.315 58.0057L390.77 60.5596" stroke="#393939" stroke-linecap="round" stroke-linejoin="round"/>
<path d="M399.159 56.2001L398.718 60.3185" stroke="#393939" stroke-linecap="round" stroke-linejoin="round"/>
<path d="M423.871 76.4583L418.787 77.756" stroke="#393939" stroke-linecap="round" stroke-linejoin="round"/>
<path d="M417.676 70.0128L415.495 71.4176" stroke="#393939" stroke-linecap="round" stroke-linejoin="round"/>
<path d="M413.034 62.2847L410.291 65.4002" stroke="#393939" stroke-linecap="round" stroke-linejoin="round"/>
<path d="M404.444 64.9588H404.323H404.216C392.068 59.891 378.93 65.1059 373.953 76.4581C372.455 79.8385 371.812 83.5349 372.08 87.2221C372.08 89.0941 371.972 93.6671 371.37 99.3633C370.997 103.067 370.285 106.728 369.243 110.301L369.136 110.502C369.038 110.708 368.982 110.933 368.972 111.161C368.962 111.39 368.998 111.618 369.078 111.832C369.158 112.047 369.28 112.243 369.437 112.409C369.594 112.576 369.783 112.709 369.992 112.802H370.099L379.465 116.893H379.572L382.087 117.99H382.208L391.573 122.081H391.68C391.889 122.173 392.114 122.222 392.341 122.225C392.569 122.228 392.795 122.185 393.006 122.099C393.217 122.013 393.409 121.885 393.569 121.724C393.73 121.562 393.856 121.37 393.941 121.159C393.941 121.078 394.008 121.012 394.035 120.945C395.958 117.758 398.17 114.754 400.644 111.972C404.444 107.68 407.735 104.511 409.1 103.241C412.128 100.83 414.491 97.6852 415.964 94.1059C417.436 90.5266 417.97 86.6307 417.514 82.7875C417.059 78.9443 415.629 75.281 413.36 72.1446C411.092 69.0082 408.06 66.5026 404.551 64.8652L404.444 64.9588Z" fill="white"/>
<path d="M392.063 122.237L369.621 112.386L367.335 117.59L389.776 127.44L392.063 122.237Z" fill="#393939"/>
<path d="M387.131 133.447L389.232 128.687L366.782 118.832L364.748 123.459L387.131 133.447Z" fill="#393939"/>
<path d="M389.774 127.443L367.332 117.593L366.789 118.83L389.23 128.68L389.774 127.443Z" fill="white"/>
<path d="M364.748 123.459L367.625 130.118L380.214 135.6L387.131 133.447L364.748 123.459Z" fill="#393939"/>
<path d="M394.758 112.441C397.153 108.747 400.109 105.449 403.521 102.666C412.097 95.8868 418.078 89.2947 413.154 77.1" stroke="#393939" stroke-linecap="round" stroke-linejoin="round"/>
<path d="M390.757 119.714C390.757 119.714 391.265 118.471 392.295 116.559" stroke="#393939" stroke-linecap="round" stroke-linejoin="round"/>
<path d="M377.592 115.289C377.592 115.289 380.174 98.8285 378.395 94.2422C376.615 89.6558 375.21 103.254 381.833 101.369C388.456 99.4837 385.031 91.4476 384.081 95.0846C383.131 98.7216 385.593 103.455 389.553 101.182C393.513 98.9088 393.687 95.4723 391.359 96.9833C389.031 98.4943 391.827 105.14 395.64 103.562C399.453 101.984 398.624 99.8047 395.801 101.035C392.978 102.265 386.73 114.486 384.857 119.019" stroke="#393939" stroke-linecap="round" stroke-linejoin="round"/>
<path d="M477.12 225.95C475.818 228.978 473.91 231.708 471.514 233.972C467.299 238.131 465.547 247.531 476.999 252.692C488.452 257.854 483.876 277.51 470.149 275.129C456.422 272.749 448.635 251.061 435.711 256.49C422.787 261.919 426.346 282.069 416.753 278.111C407.16 274.153 403.146 264.74 395.587 268.39C388.028 272.041 384.643 289.784 413.341 300.107C442.039 310.43 435.591 267.454 444.622 268.965C453.653 270.476 454.335 283.5 468.704 287.351C483.073 291.202 497.376 270.302 495.369 258.536C493.362 246.769 477.601 246.769 475.006 240.912C472.41 235.055 481.388 228.316 481.388 228.316C481.388 228.316 480.893 224.131 477.12 225.95Z" fill="white"/>
<path d="M478.726 215.935L475.26 224.653C474.962 225.395 474.918 226.215 475.136 226.985C475.353 227.754 475.821 228.43 476.465 228.905C477.212 229.455 478.142 229.698 479.062 229.584C479.983 229.469 480.825 229.006 481.415 228.29L488.332 219.893L478.726 215.935Z" fill="#393939" stroke="#393939" stroke-linecap="round" stroke-linejoin="round"/>
<path d="M497.804 163.412L519.973 179.016C519.973 179.016 506.407 198.793 501.457 208.313C496.506 217.833 489.643 224.479 483.957 223.503C478.27 222.527 474.872 214.597 476.558 207.791C478.244 200.985 490.579 185.675 493.108 178.374C495.637 171.074 497.804 163.412 497.804 163.412Z" fill="white"/>
<path d="M497.804 163.412C497.804 163.412 495.65 170.98 493.107 178.294C491.921 181.225 490.441 184.03 488.692 186.665C493.986 191.824 499.796 196.426 506.032 200.397C511.986 190.689 520 179.003 520 179.003L497.804 163.412Z" fill="#393939"/>
<path d="M493.991 238.225C493.616 238.821 493.071 239.292 492.428 239.579C491.784 239.865 491.069 239.954 490.375 239.834C489.68 239.715 489.037 239.392 488.526 238.906C488.016 238.42 487.661 237.794 487.507 237.107C487.353 236.42 487.406 235.702 487.661 235.045C487.915 234.388 488.359 233.822 488.936 233.417C489.513 233.013 490.197 232.789 490.902 232.773C491.607 232.758 492.3 232.952 492.894 233.331C493.289 233.579 493.631 233.902 493.901 234.283C494.17 234.664 494.361 235.094 494.463 235.549C494.565 236.004 494.576 236.475 494.495 236.934C494.414 237.394 494.243 237.832 493.991 238.225Z" fill="white"/>
<path d="M463.326 257.667C462.996 258.184 462.521 258.591 461.96 258.838C461.399 259.085 460.777 259.161 460.173 259.055C459.569 258.949 459.01 258.667 458.566 258.244C458.122 257.821 457.814 257.276 457.68 256.678C457.546 256.08 457.592 255.456 457.812 254.884C458.032 254.312 458.417 253.819 458.918 253.465C459.419 253.112 460.014 252.915 460.627 252.898C461.24 252.882 461.844 253.048 462.363 253.375C463.059 253.817 463.551 254.517 463.732 255.322C463.912 256.126 463.766 256.97 463.326 257.667Z" fill="white"/>
<path d="M460.703 308.251C460.594 308.426 460.452 308.579 460.284 308.699C460.116 308.82 459.926 308.906 459.725 308.953C459.523 309.001 459.315 309.008 459.111 308.974C458.907 308.941 458.711 308.868 458.536 308.759C458.36 308.65 458.207 308.508 458.087 308.34C457.966 308.172 457.88 307.982 457.833 307.781C457.785 307.58 457.778 307.371 457.812 307.168C457.845 306.964 457.918 306.768 458.027 306.593C458.247 306.238 458.599 305.985 459.006 305.89C459.412 305.795 459.84 305.865 460.195 306.085C460.55 306.305 460.802 306.656 460.898 307.062C460.993 307.469 460.923 307.896 460.703 308.251Z" fill="white"/>
<path d="M405.394 289.183C409.006 291.46 413.028 293.013 417.234 293.756C429.275 295.775 430.774 288.996 433.289 279.409" stroke="#393939" stroke-linecap="round" stroke-linejoin="round"/>
<path d="M397.567 282.711C398.398 283.662 399.292 284.556 400.243 285.386" stroke="#393939" stroke-linecap="round" stroke-linejoin="round"/>
<path d="M466.817 283.059C466.817 283.059 479.581 288.876 487.475 273.699" stroke="#393939" stroke-linecap="round" stroke-linejoin="round"/>
<path d="M481.067 219.198C480.474 218.843 479.961 218.37 479.558 217.809C479.156 217.248 478.872 216.61 478.726 215.935" stroke="#393939" stroke-linecap="round" stroke-linejoin="round"/>
<path d="M501.189 202.831C501.189 202.831 493.309 217.98 488.305 219.893C487.175 220.34 485.959 220.532 484.746 220.454" stroke="#393939" stroke-linecap="round" stroke-linejoin="round"/>
<path d="M229.372 83.0449L192.331 87.2039L195.604 116.317L232.645 112.158L229.372 83.0449Z" fill="white"/>
<path opacity="0.5" d="M229.372 83.0449L192.331 87.2039L195.604 116.317L232.645 112.158L229.372 83.0449Z" fill="white"/>
<path d="M227.765 84.4396L194.114 88.2179L197.058 114.408L230.709 110.63L227.765 84.4396Z" fill="white"/>
<path d="M229.083 93.4796C227.25 91.5274 225.711 91.1129 223.932 93.2122C221.256 96.408 219.811 103.548 217.911 103.254C216.011 102.96 215.677 100.098 213.764 98.2666C211.85 96.4347 209.442 100.794 204.733 105.928C202.508 108.36 199.764 110.261 196.705 111.491L197.053 114.633L231.049 110.809L229.083 93.4796Z" fill="#393939"/>
<path d="M206.86 93.4933C206.958 94.3424 206.801 95.2014 206.41 95.9616C206.019 96.7218 205.412 97.349 204.664 97.7638C203.916 98.1787 203.062 98.3624 202.21 98.2919C201.358 98.2214 200.545 97.8997 199.876 97.3676C199.207 96.8355 198.711 96.1169 198.45 95.3028C198.19 94.4887 198.177 93.6157 198.413 92.7942C198.65 91.9728 199.125 91.24 199.778 90.6884C200.431 90.1368 201.233 89.7914 202.083 89.6958C203.22 89.5679 204.362 89.8959 205.257 90.6078C206.152 91.3196 206.729 92.3573 206.86 93.4933Z" fill="#393939"/>
<path d="M131.045 233.327L69.0469 212.739L52.8513 261.453L114.849 282.041L131.045 233.327Z" fill="white"/>
<path opacity="0.5" d="M131.045 233.327L69.0469 212.739L52.8513 261.453L114.849 282.041L131.045 233.327Z" fill="white"/>
<path d="M126.109 235.636L69.7266 216.656L54.9388 260.531L111.321 279.512L126.109 235.636Z" fill="#393939"/>
<path d="M122.772 249.67C121.3 245.218 119.146 243.426 114.744 245.458C108.054 248.561 100.575 258.83 97.7658 257.011C94.9562 255.193 96.5349 250.326 94.8358 246.033C93.1366 241.741 86.1126 246.889 74.8473 251.596C69.4913 253.825 63.7033 254.826 57.9092 254.524L56.1699 259.766L113.085 278.673L122.772 249.67Z" fill="white"/>
<path d="M87.5039 233.425C87.0311 234.844 86.1477 236.092 84.9654 237.011C83.7831 237.929 82.355 238.476 80.8615 238.583C79.3681 238.691 77.8763 238.353 76.5748 237.613C75.2733 236.873 74.2205 235.764 73.5493 234.427C72.8782 233.089 72.619 231.583 72.8044 230.098C72.9897 228.613 73.6114 227.216 74.5908 226.084C75.5702 224.952 76.8634 224.136 78.3069 223.738C79.7504 223.341 81.2794 223.38 82.7007 223.851C83.6455 224.163 84.5193 224.659 85.2721 225.31C86.0249 225.961 86.642 226.753 87.0881 227.642C87.5342 228.532 87.8005 229.5 87.8719 230.492C87.9432 231.484 87.8182 232.481 87.5039 233.425Z" fill="white"/>
<path d="M426.078 349.301C426.203 348.917 426.237 348.509 426.176 348.11C426.116 347.711 425.962 347.331 425.728 347.002C425.493 346.673 425.185 346.403 424.828 346.215C424.47 346.027 424.074 345.925 423.669 345.918L395.265 345.276C394.71 345.275 394.168 345.448 393.715 345.769C393.262 346.09 392.92 346.544 392.737 347.068L383.197 376.792C382.439 376.161 381.567 375.68 380.629 375.375C379.145 374.888 377.551 374.844 376.043 375.249C374.535 375.654 373.177 376.489 372.137 377.653C371.097 378.817 370.419 380.259 370.186 381.803C369.954 383.346 370.177 384.924 370.828 386.343C371.479 387.761 372.53 388.959 373.852 389.79C375.175 390.62 376.71 391.048 378.272 391.019C379.833 390.99 381.352 390.507 382.643 389.628C383.934 388.75 384.94 387.514 385.539 386.072H385.646L392.924 363.421L415.923 363.942L411.708 377.046C410.366 375.985 408.718 375.38 407.007 375.321C405.296 375.261 403.61 375.75 402.197 376.716C400.783 377.682 399.716 379.075 399.151 380.69C398.586 382.305 398.552 384.059 399.055 385.695C399.558 387.331 400.571 388.763 401.946 389.782C403.321 390.802 404.987 391.355 406.699 391.361C408.411 391.368 410.08 390.827 411.463 389.817C412.846 388.808 413.869 387.383 414.384 385.751C414.384 385.751 414.384 385.671 414.384 385.631L426.078 349.301ZM417.569 358.835L394.57 358.313L397.085 350.491L420.084 351.026L417.569 358.835Z" fill="#393939"/>
<path d="M352.907 368.047C352.961 367.877 352.975 367.697 352.947 367.52C352.919 367.344 352.85 367.176 352.746 367.031C352.641 366.887 352.505 366.769 352.347 366.686C352.189 366.602 352.015 366.556 351.837 366.55L339.287 366.269C339.04 366.262 338.797 366.335 338.594 366.477C338.392 366.62 338.241 366.823 338.163 367.058L333.949 380.189C333.612 379.91 333.227 379.697 332.811 379.56C332.157 379.347 331.454 379.329 330.79 379.508C330.125 379.687 329.527 380.056 329.068 380.569C328.609 381.082 328.31 381.718 328.207 382.398C328.104 383.078 328.201 383.774 328.487 384.4C328.773 385.026 329.235 385.555 329.817 385.923C330.398 386.291 331.075 386.482 331.763 386.472C332.452 386.462 333.122 386.252 333.693 385.868C334.264 385.483 334.711 384.941 334.979 384.307L338.203 374.292L348.371 374.519L346.512 380.322C346.184 380.048 345.807 379.839 345.401 379.707C344.734 379.493 344.018 379.481 343.344 379.673C342.67 379.865 342.068 380.253 341.615 380.786C341.161 381.32 340.875 381.976 340.795 382.672C340.714 383.368 340.841 384.072 341.16 384.695C341.48 385.319 341.977 385.834 342.589 386.175C343.201 386.516 343.901 386.669 344.599 386.613C345.298 386.557 345.964 386.295 346.514 385.861C347.064 385.427 347.473 384.84 347.689 384.173L352.907 368.047ZM349.147 372.259L338.979 372.032L340.09 368.569L350.258 368.81L349.147 372.259Z" fill="#393939"/>
<path d="M106.904 305.59C106.956 305.427 106.97 305.254 106.945 305.085C106.919 304.915 106.855 304.754 106.757 304.614C106.653 304.475 106.521 304.361 106.368 304.28C106.215 304.199 106.046 304.153 105.874 304.146L93.6851 303.865C93.4448 303.86 93.2093 303.932 93.0139 304.072C92.8185 304.212 92.6737 304.412 92.6014 304.641L88.5074 317.37C88.1809 317.105 87.8093 316.901 87.4103 316.768C86.7754 316.561 86.0937 316.543 85.4487 316.716C84.8036 316.89 84.2231 317.247 83.7779 317.745C83.3328 318.243 83.0424 318.859 82.9422 319.519C82.842 320.179 82.9364 320.854 83.2137 321.462C83.4911 322.069 83.9394 322.582 84.504 322.939C85.0685 323.296 85.7249 323.481 86.3928 323.471C87.0607 323.461 87.7113 323.257 88.265 322.883C88.8187 322.51 89.2516 321.983 89.5108 321.368L92.6282 311.661L102.489 311.874L100.682 317.504C100.365 317.236 99.9964 317.035 99.5987 316.915C98.9512 316.707 98.2563 316.695 97.6021 316.882C96.9479 317.068 96.3637 317.444 95.9235 317.963C95.4833 318.481 95.2068 319.118 95.129 319.794C95.0513 320.469 95.1758 321.153 95.4868 321.757C95.7977 322.362 96.2812 322.861 96.876 323.191C97.4707 323.521 98.1501 323.667 98.8281 323.611C99.5061 323.555 100.152 323.3 100.685 322.877C101.217 322.453 101.612 321.882 101.82 321.234L106.904 305.59ZM103.318 309.682L93.4577 309.468L94.528 306.111L104.402 306.339L103.318 309.682Z" fill="#393939"/>
<path d="M191.714 150.281C255.159 164.241 378.475 201.654 409.956 203.767C486.926 209.115 491.569 73.7437 390.971 43.4843C312.569 19.8972 234.274 80.2288 171.472 103.014" stroke="#393939" stroke-width="0.5" stroke-linecap="round" stroke-linejoin="round" stroke-dasharray="3 3"/>
<path d="M11.002 305.991C40.2756 283.901 107.051 248.801 233.592 251.93C374.622 255.407 426.038 277.603 488.532 278.459" stroke="#393939" stroke-width="0.5" stroke-linecap="round" stroke-linejoin="round" stroke-dasharray="5 3"/>
<path d="M306.347 434.021C306.347 434.021 269.662 443.221 171.057 413.068C127.146 399.63 81.9916 376.311 57.7485 335.702C19.6312 271.853 38.4558 184.605 101.753 152.995" stroke="#393939" stroke-width="0.5" stroke-linecap="round" stroke-linejoin="round" stroke-dasharray="5 3"/>
<path d="M284.593 420.557L275.027 462.957L388.51 440.935L284.593 420.557Z" fill="#393939" stroke="white" stroke-linecap="round" stroke-linejoin="round"/>
<path d="M284.727 432.778L275.027 462.957L316.021 454.186L284.727 432.778Z" fill="#393939" stroke="white" stroke-linecap="round" stroke-linejoin="round"/>
<path d="M282.506 386.607L284.593 420.557L388.509 440.935L282.506 386.607Z" fill="#393939" stroke="white" stroke-linecap="round" stroke-linejoin="round"/>
<path d="M388.509 440.934L283.991 478L284.727 432.778L388.509 440.934Z" fill="#393939" stroke="white" stroke-linecap="round" stroke-linejoin="round"/>
<path d="M315.58 174.617C315.58 174.617 309.72 162.917 312.449 156.285C315.178 149.653 325.721 139.116 331.18 143.408C336.638 147.701 334.685 157.448 339.368 160.19C344.051 162.931 359.276 169.937 360.453 183.202C361.631 196.466 351.476 206.602 354.205 211.282C356.935 215.961 377.231 214.798 385.432 228.063C393.634 241.327 390.891 260.047 385.044 267.468C379.198 274.889 343.663 286.188 343.663 294.772C343.663 303.357 354.593 312.717 338.204 321.288C321.814 329.859 297.223 325.58 294.882 305.242C292.541 284.904 317.118 265.85 315.566 252.198C314.014 238.546 299.953 228.397 296.046 215.52C292.139 202.644 313.225 198.753 316.342 194.126C319.46 189.5 315.58 174.617 315.58 174.617Z" fill="#393939" stroke="#393939" stroke-linecap="round" stroke-linejoin="round"/>
<path d="M382.007 252.131C381.03 255.18 379.652 257.038 379.104 257.226" stroke="white" stroke-linecap="round" stroke-linejoin="round"/>
<path d="M334.698 187.053C334.698 187.053 336.384 195.931 343.154 199.729C349.924 203.526 338.083 212.418 345.268 221.711C352.452 231.004 375.304 221.711 380.803 234.387C382.203 237.562 382.98 240.975 383.091 244.443" stroke="white" stroke-linecap="round" stroke-linejoin="round"/>
<path d="M352.306 196.613C353.558 197.4 354.907 198.02 356.319 198.458" stroke="white" stroke-linecap="round" stroke-linejoin="round"/>
<path d="M336.812 159.989C336.812 159.989 337.241 180.714 343.582 188.737C344.874 190.386 346.307 191.921 347.864 193.323" stroke="white" stroke-linecap="round" stroke-linejoin="round"/>
<path d="M224.079 164.722C224.079 164.722 226.273 155.804 226.273 153.21C226.273 150.615 225.618 149.96 224.935 151.418C224.293 153.168 223.753 154.954 223.316 156.766L224.079 164.722Z" fill="white" stroke="#393939" stroke-linecap="round" stroke-linejoin="round"/>
<path d="M145.824 401.502C145.824 401.502 138.479 413.617 132.244 420.222C126.009 426.828 124.217 433.794 130.772 435.626C137.328 437.458 147.296 434.891 152.433 429.756C157.571 424.621 161.986 416.92 167.151 413.978C172.315 411.036 175.593 410.675 175.593 402.612C175.593 394.549 171.927 392.704 171.927 392.704C171.927 392.704 157.21 401.141 145.824 401.502Z" fill="#393939" stroke="#393939" stroke-linecap="round" stroke-linejoin="round"/>
<path d="M163.819 413.617C156.849 419.487 150.962 430.491 139.59 431.962C132.9 432.818 128.886 431.16 126.705 429.636C126.264 432.47 127.441 434.703 130.719 435.626C137.328 437.471 147.242 434.891 152.38 429.756C157.518 424.621 161.933 416.919 167.097 413.978C171.593 411.41 174.683 410.809 175.392 405.286C171.35 407.798 167.484 410.582 163.819 413.617Z" fill="white" stroke="#393939" stroke-linecap="round" stroke-linejoin="round"/>
<path d="M257.447 287.017C257.447 287.017 219.263 276.748 201.254 273.445C183.246 270.142 166.375 267.936 160.501 274.916C154.628 281.896 156.099 336.183 153.531 349.795C150.962 363.407 148.018 389.428 147.282 393.453C146.547 397.478 143.269 401.168 145.45 402.639C147.63 404.11 160.862 405.206 165.639 402.639C170.415 400.072 174.081 398.628 174.081 394.188C174.081 389.749 174.817 350.531 178.095 338.416C181.373 326.302 183.968 305.763 183.968 305.763C183.968 305.763 207.837 311.259 218.848 314.562C229.859 317.865 245.606 329.605 260.711 329.979C275.816 330.353 273.93 307.595 270.986 300.99C268.043 294.384 262.946 288.127 257.447 287.017Z" fill="white"/>
<path opacity="0.39" d="M272.271 305.148C270.509 301.732 268.407 298.502 265.996 295.508C263.214 292.713 259.227 288.982 257.006 286.896L252.136 285.559L237.017 286.816C237.017 286.816 177.038 272.589 175.473 279.194C173.907 285.8 177.506 292.913 177.506 292.913C177.506 292.913 164.796 279.703 166.321 284.784C167.847 289.865 177.506 301.043 177.506 301.043C177.506 301.043 167.338 289.357 167.338 296.47C167.338 303.584 170.389 337.614 164.796 364.544C161.117 382.221 153.946 395.525 151.417 403.869C156.26 404.324 162.575 404.163 165.572 402.532C170.349 399.951 174.014 398.521 174.014 394.081C174.014 389.642 174.75 350.424 178.028 338.309C181.306 326.195 183.902 305.656 183.902 305.656C183.902 305.656 207.77 311.152 218.781 314.455C229.792 317.757 245.54 329.498 260.645 329.872C273.422 330.26 274.118 314.187 272.271 305.148Z" fill="black"/>
<path d="M184.008 305.737C184.008 305.737 185.627 289.33 175.513 279.248" stroke="#393939" stroke-linecap="round" stroke-linejoin="round"/>
<path d="M182.751 280.893C182.751 280.893 186.604 284.637 185.306 295.187" stroke="#393939" stroke-linecap="round" stroke-linejoin="round"/>
<path d="M257.447 287.017C257.447 287.017 219.263 276.748 201.254 273.445C183.246 270.142 166.375 267.936 160.501 274.916C154.628 281.896 156.099 336.183 153.531 349.795C150.962 363.407 148.018 389.428 147.282 393.453C146.547 397.478 143.269 401.168 145.45 402.639C147.63 404.11 160.862 405.206 165.639 402.639C170.415 400.072 174.081 398.628 174.081 394.188C174.081 389.749 174.817 350.531 178.095 338.416C181.373 326.302 183.968 305.763 183.968 305.763C183.968 305.763 207.837 311.259 218.848 314.562C229.859 317.865 245.606 329.605 260.711 329.979C275.816 330.353 273.93 307.595 270.986 300.99C268.043 294.384 262.946 288.127 257.447 287.017Z" stroke="#393939" stroke-linecap="round" stroke-linejoin="round"/>
<path d="M312.449 215.186C312.449 215.186 308.943 215.975 298.788 214.022C288.634 212.07 289.035 216.362 275.763 210.893C262.491 205.424 232.829 183.201 228.146 179.685L223.464 176.221C223.464 176.221 224.079 168.827 224.079 164.762C224.079 160.697 223.852 156.846 223.852 156.846C223.852 156.846 224.989 147.593 224.079 146.002C223.169 144.411 221.59 146.457 221.59 148.262C221.113 151.582 220.278 154.841 219.102 157.983C219.102 157.983 217.523 148.489 217.068 146.684C216.613 144.879 215.49 144.197 214.392 144.652C213.295 145.106 214.62 150.08 214.62 152.113C214.62 154.145 214.392 160.015 214.392 160.015C214.392 160.015 210.379 150.08 209.188 148.048C207.997 146.016 206.699 147.593 206.927 149.385C207.154 151.177 210.539 161.125 210.539 161.125C210.539 161.125 208.506 171.742 208.506 172.424C208.506 173.106 204.211 171.742 202.177 169.937C200.144 168.132 199.501 169.937 200.839 172.197C202.177 174.456 205.816 176.716 209.884 178.521C213.951 180.326 218.473 182.132 218.473 182.132C218.473 182.132 241.98 207.43 250.583 215.346C259.186 223.262 268.672 228.209 273.649 230.924C278.626 233.638 289.463 239.281 289.463 239.281C289.463 239.281 284.044 243.292 284.044 249.898C284.044 256.503 285.382 262.32 282.225 266.612C279.067 270.904 268.444 279.489 268.444 279.489C268.444 279.489 253.981 264.78 244.937 259.431C235.893 254.083 226.407 251.97 219.396 262.587C212.386 273.204 211.944 318.827 211.262 333.736C210.579 348.645 207.649 358.366 206.071 359.944C204.62 361.323 203.677 363.151 203.395 365.132C203.395 366.469 203.167 369.652 203.167 369.652C203.167 369.652 205.201 381.178 211.302 385.697C217.403 390.217 220.801 396.087 222.835 392.249C224.868 388.412 230.059 381.86 230.514 376.204C230.788 371.023 231.355 365.862 232.214 360.746C232.896 358.072 232.668 337.026 236.508 326.409C240.348 315.792 242.382 309.467 242.382 309.467C242.382 309.467 246.007 330.474 261.594 334.766C277.181 339.058 291.657 330.754 300.019 318.279C308.381 305.803 319.232 282.591 326.457 273.324C333.681 264.058 344.773 248.708 344.773 248.708L360.828 270.169C359.578 272.898 358.143 275.538 356.533 278.071C353.857 282.363 344.786 290.72 344.786 290.72C344.786 290.72 348.8 293.876 352.011 294.331C355.222 294.785 370.327 287.551 377.779 281.227C385.231 274.902 386.596 272.201 383.653 267.855C380.709 263.51 368.935 247.972 361.965 238.037C354.994 228.102 354.499 220.186 347.489 217.699C340.478 215.212 331.902 217.258 329.186 217.258C326.45 217.078 323.732 216.698 321.051 216.122L312.449 215.186Z" fill="white"/>
<path opacity="0.39" d="M285.276 312.784C285.276 312.784 273.582 287.378 253.754 273.151C233.926 258.924 233.926 262.454 234.943 265.529C235.96 268.605 236.977 272.643 236.977 272.643C236.977 272.643 229.351 264.513 229.351 270.102C229.351 275.691 236.468 292.459 231.384 313.292C226.3 334.124 220.681 353.927 222.233 363.073C223.785 372.219 225.792 379.841 220.199 373.77C214.607 367.7 211.556 373.77 212.065 376.311C212.279 377.34 217.416 383.371 223.758 390.364C226.14 386.473 229.979 381.004 230.367 376.164C230.691 370.994 231.308 365.847 232.214 360.747C232.896 358.072 232.669 337.026 236.508 326.409C240.348 315.792 242.382 309.467 242.382 309.467C242.382 309.467 246.008 330.474 261.594 334.766C277.181 339.058 291.657 330.755 300.019 318.279C303.618 312.931 307.672 305.576 311.699 298.222L292.969 306.659L285.276 312.784Z" fill="black"/>
<path d="M242.596 270.731C242.596 270.731 250.436 284.102 243.372 306.406" stroke="#393939" stroke-linecap="round" stroke-linejoin="round"/>
<path d="M247.078 269.166C247.078 269.166 249.634 278.339 247.078 285.493" stroke="#393939" stroke-linecap="round" stroke-linejoin="round"/>
<path d="M312.449 215.186C312.449 215.186 308.943 215.975 298.788 214.022C288.634 212.07 289.035 216.362 275.763 210.893C262.491 205.424 232.829 183.201 228.146 179.685L223.464 176.221C223.464 176.221 224.079 168.827 224.079 164.762C224.079 160.697 223.852 156.846 223.852 156.846C223.852 156.846 224.989 147.593 224.079 146.002C223.169 144.411 221.59 146.457 221.59 148.262C221.113 151.582 220.278 154.841 219.102 157.983C219.102 157.983 217.523 148.489 217.068 146.684C216.613 144.879 215.49 144.197 214.392 144.652C213.295 145.106 214.62 150.08 214.62 152.113C214.62 154.145 214.392 160.015 214.392 160.015C214.392 160.015 210.379 150.08 209.188 148.048C207.997 146.016 206.699 147.593 206.927 149.385C207.154 151.177 210.539 161.125 210.539 161.125C210.539 161.125 208.506 171.742 208.506 172.424C208.506 173.106 204.211 171.742 202.177 169.937C200.144 168.132 199.501 169.937 200.839 172.197C202.177 174.456 205.816 176.716 209.884 178.521C213.951 180.326 218.473 182.132 218.473 182.132C218.473 182.132 241.98 207.43 250.583 215.346C259.186 223.262 268.672 228.209 273.649 230.924C278.626 233.638 289.463 239.281 289.463 239.281C289.463 239.281 284.044 243.292 284.044 249.898C284.044 256.503 285.382 262.32 282.225 266.612C279.067 270.904 268.444 279.489 268.444 279.489C268.444 279.489 253.981 264.78 244.937 259.431C235.893 254.083 226.407 251.97 219.396 262.587C212.386 273.204 211.944 318.827 211.262 333.736C210.579 348.645 207.649 358.366 206.071 359.944C204.62 361.323 203.677 363.151 203.395 365.132C203.395 366.469 203.167 369.652 203.167 369.652C203.167 369.652 205.201 381.178 211.302 385.697C217.403 390.217 220.801 396.087 222.835 392.249C224.868 388.412 230.059 381.86 230.514 376.204C230.788 371.023 231.355 365.862 232.214 360.746C232.896 358.072 232.668 337.026 236.508 326.409C240.348 315.792 242.382 309.467 242.382 309.467C242.382 309.467 246.007 330.474 261.594 334.766C277.181 339.058 291.657 330.754 300.019 318.279C308.381 305.803 319.232 282.591 326.457 273.324C333.681 264.058 344.773 248.708 344.773 248.708L360.828 270.169C359.578 272.898 358.143 275.538 356.533 278.071C353.857 282.363 344.786 290.72 344.786 290.72C344.786 290.72 348.8 293.876 352.011 294.331C355.222 294.785 370.327 287.551 377.779 281.227C385.231 274.902 386.596 272.201 383.653 267.855C380.709 263.51 368.935 247.972 361.965 238.037C354.994 228.102 354.499 220.186 347.489 217.699C340.478 215.212 331.902 217.258 329.186 217.258C326.45 217.078 323.732 216.698 321.051 216.122L312.449 215.186Z" stroke="#393939" stroke-linecap="round" stroke-linejoin="round"/>
<path d="M361.952 238.131C354.941 228.183 354.486 220.28 347.475 217.793C340.465 215.306 331.889 217.352 329.173 217.352C326.437 217.171 323.718 216.792 321.038 216.215L312.449 215.186C312.449 215.186 308.943 215.975 298.788 214.022C288.634 212.07 289.035 216.362 275.763 210.893C262.491 205.424 232.829 183.201 228.146 179.685L223.464 176.221C223.464 176.221 224.079 168.827 224.079 164.762C224.079 160.697 223.852 156.846 223.852 156.846C223.852 156.846 224.989 147.593 224.079 146.002C223.169 144.411 221.59 146.457 221.59 148.262C221.113 151.582 220.278 154.841 219.102 157.983C219.102 157.983 217.523 148.489 217.068 146.684C216.613 144.879 215.49 144.197 214.392 144.652C213.295 145.106 214.62 150.08 214.62 152.113C214.62 154.145 214.392 160.015 214.392 160.015C214.392 160.015 210.379 150.08 209.188 148.048C207.997 146.016 206.699 147.593 206.927 149.385C207.154 151.177 210.539 161.125 210.539 161.125C210.539 161.125 208.506 171.742 208.506 172.424C208.506 173.106 204.211 171.742 202.177 169.937C200.144 168.132 199.501 169.937 200.839 172.197C202.177 174.456 205.816 176.716 209.884 178.521C213.951 180.326 218.473 182.132 218.473 182.132C218.473 182.132 241.98 207.43 250.583 215.346C259.186 223.262 268.672 228.209 273.649 230.924C278.626 233.638 289.463 239.281 289.463 239.281C289.463 239.281 284.045 243.292 284.045 249.898V250.753L332.009 266.211C338.311 257.813 344.84 248.828 344.84 248.828L360.895 270.289C359.645 273.018 358.21 275.658 356.6 278.191C353.924 282.484 344.853 290.841 344.853 290.841C344.853 290.841 348.867 293.996 352.078 294.451C355.289 294.906 370.394 287.672 377.846 281.347C385.298 275.022 386.663 272.321 383.719 267.976C380.776 263.63 368.949 248.066 361.952 238.131Z" fill="white"/>
<path d="M361.952 238.131C354.941 228.183 354.486 220.28 347.475 217.793C340.465 215.306 331.888 217.352 329.172 217.352C327.037 217.248 324.913 216.985 322.817 216.563C322.817 216.563 322.817 216.67 322.817 216.737C322.817 216.804 327.273 220.066 338.03 223.784C348.786 227.501 363.624 254.19 369.19 260.114C374.755 266.037 376.615 269.393 375.13 271.239C373.645 273.084 370.675 274.956 365.109 280.879C361.47 284.77 356.734 289.29 354.713 293.916C363.028 290.984 370.806 286.711 377.739 281.267C385.205 274.943 386.556 272.242 383.612 267.896C380.669 263.55 368.949 248.066 361.952 238.131Z" fill="white"/>
<path d="M271.268 211.174C265.355 209.342 259.824 206.451 254.945 202.643C246.048 195.958 233.057 186.691 236.027 193.377C238.997 200.063 259.4 216.737 267.562 220.815C275.723 224.893 280.941 222.66 291.31 221.925C301.679 221.19 299.471 215.988 292.795 215.988C286.119 215.988 276.472 213.394 271.268 211.174Z" fill="white"/>
<path opacity="0.5" d="M271.268 211.174C265.355 209.342 259.824 206.451 254.945 202.643C246.048 195.958 233.057 186.691 236.027 193.377C238.997 200.063 259.4 216.737 267.562 220.815C275.723 224.893 280.941 222.66 291.31 221.925C301.679 221.19 299.471 215.988 292.795 215.988C286.119 215.988 276.472 213.394 271.268 211.174Z" fill="white"/>
<path opacity="0.5" d="M361.952 238.131C354.941 228.183 354.486 220.28 347.475 217.793C340.465 215.306 331.888 217.352 329.172 217.352C327.037 217.248 324.913 216.985 322.817 216.563C322.817 216.563 322.817 216.67 322.817 216.737C322.817 216.804 327.273 220.066 338.03 223.784C348.786 227.501 363.624 254.19 369.19 260.114C374.755 266.037 376.615 269.393 375.13 271.239C373.645 273.084 370.675 274.956 365.109 280.879C361.47 284.77 356.734 289.29 354.713 293.916C363.028 290.984 370.806 286.711 377.739 281.267C385.205 274.943 386.556 272.242 383.612 267.896C380.669 263.55 368.949 248.066 361.952 238.131Z" fill="white"/>
<path d="M361.952 238.131C354.941 228.183 354.486 220.28 347.475 217.793C340.465 215.306 331.889 217.352 329.173 217.352C326.437 217.171 323.718 216.792 321.038 216.215L312.449 215.186C312.449 215.186 308.943 215.975 298.788 214.022C288.634 212.07 289.035 216.362 275.763 210.893C262.491 205.424 232.829 183.201 228.146 179.685L223.464 176.221C223.464 176.221 224.079 168.827 224.079 164.762C224.079 160.697 223.852 156.846 223.852 156.846C223.852 156.846 224.989 147.593 224.079 146.002C223.169 144.411 221.59 146.457 221.59 148.262C221.113 151.582 220.278 154.841 219.102 157.983C219.102 157.983 217.523 148.489 217.068 146.684C216.613 144.879 215.49 144.197 214.392 144.652C213.295 145.106 214.62 150.08 214.62 152.113C214.62 154.145 214.392 160.015 214.392 160.015C214.392 160.015 210.379 150.08 209.188 148.048C207.997 146.016 206.699 147.593 206.927 149.385C207.154 151.177 210.539 161.125 210.539 161.125C210.539 161.125 208.506 171.742 208.506 172.424C208.506 173.106 204.211 171.742 202.177 169.937C200.144 168.132 199.501 169.937 200.839 172.197C202.177 174.456 205.816 176.716 209.884 178.521C213.951 180.326 218.473 182.132 218.473 182.132C218.473 182.132 241.98 207.43 250.583 215.346C259.186 223.262 268.672 228.209 273.649 230.924C278.626 233.638 289.463 239.281 289.463 239.281C289.463 239.281 284.045 243.292 284.045 249.898V250.753L332.009 266.211C338.311 257.814 344.84 248.828 344.84 248.828L360.895 270.289C359.645 273.018 358.21 275.658 356.6 278.191C353.924 282.484 344.853 290.841 344.853 290.841C344.853 290.841 348.867 293.996 352.078 294.451C355.289 294.906 370.394 287.672 377.846 281.347C385.298 275.022 386.663 272.321 383.719 267.976C380.776 263.63 368.949 248.066 361.952 238.131Z" stroke="#393939" stroke-linecap="round" stroke-linejoin="round"/>
<path d="M361.952 238.131C354.941 228.183 354.486 220.28 347.475 217.793C340.465 215.306 331.888 217.352 329.173 217.352C326.437 217.172 323.718 216.792 321.038 216.216L312.449 215.186C312.449 215.186 308.943 215.975 298.788 214.023C288.634 212.07 289.035 216.363 275.763 210.894C274.96 210.559 274.09 210.172 273.167 209.717C269.582 212.391 265.661 217.098 263.4 225.054C267.414 227.621 271.093 229.547 273.582 230.897C278.546 233.572 289.396 239.254 289.396 239.254C289.396 239.254 283.978 243.266 283.978 249.871C283.978 256.477 285.316 262.293 282.158 266.585C279.736 269.875 272.953 275.678 269.903 278.205C275.254 283.139 291.309 299.158 297.999 320.994C298.681 320.124 299.337 319.229 299.966 318.319C308.328 305.897 319.178 282.631 326.403 273.365C333.628 264.098 344.719 248.748 344.719 248.748L350.686 256.771C354.927 251.73 360.306 247.157 366.902 245.151C365.163 242.637 363.437 240.244 361.952 238.131Z" fill="white" stroke="#393939" stroke-linecap="round" stroke-linejoin="round"/>
<path opacity="0.14" d="M330.243 251.382C329.263 252.028 328.321 252.729 327.42 253.481C325.167 255.505 322.515 257.035 319.634 257.973C316.754 258.91 313.709 259.234 310.696 258.923C294.935 257.907 286.8 245.712 286.292 249.777C285.784 253.842 286.292 265.021 295.443 268.577C304.595 272.134 316.288 267.561 312.729 271.626C309.17 275.691 291.978 284.997 296.045 290.587C300.113 296.176 311.07 294.745 324.637 270.69C326.63 267.16 336.196 257.506 336.263 253C336.37 248.28 332.959 249.617 330.243 251.382Z" fill="black"/>
<path opacity="0.14" d="M327.835 221.952C330.029 222.955 332.799 224.091 336.197 225.268C341.642 227.14 348.104 234.869 353.898 242.838C355.767 241.457 357.787 240.291 359.918 239.361C353.082 229.533 352.573 221.751 345.629 219.304C340.344 217.432 334.163 218.128 330.283 218.582L327.835 221.952Z" fill="black"/>
<path d="M363.089 239.736C359.755 240.622 356.634 242.17 353.913 244.288C351.191 246.406 348.924 249.051 347.248 252.064L350.74 256.731C354.981 251.69 360.36 247.117 366.956 245.111L363.089 239.736Z" fill="#393939" stroke="#393939" stroke-linecap="round" stroke-linejoin="round"/>
<path d="M321.039 216.215L312.449 215.186C310.261 215.457 308.046 215.426 305.867 215.092C304.703 220.173 302.736 228.798 301.706 233.959C300.18 241.607 308.395 239.562 316.516 233.959C321.761 230.349 326.176 222.727 329.053 217.338C326.358 217.152 323.68 216.776 321.039 216.215Z" fill="#393939" stroke="#393939" stroke-linecap="round" stroke-linejoin="round"/>
<path d="M267.347 227.434C269.086 223.169 272.565 216.389 278.479 211.95C277.636 211.643 276.739 211.295 275.803 210.894C274.866 210.493 274.13 210.172 273.207 209.717C269.622 212.391 265.702 217.098 263.44 225.054C264.778 225.923 266.103 226.712 267.347 227.434Z" fill="#393939" stroke="#393939" stroke-linecap="round" stroke-linejoin="round"/>
<path d="M327.675 166.42C327.675 166.42 317.921 169.161 315.192 171.501C312.463 173.841 308.502 181.249 303.873 182.025C299.244 182.8 299.177 185.541 299.177 187.494C299.147 188.585 299.42 189.663 299.966 190.609C299.966 190.609 299.578 199.581 299.578 204.261C299.578 208.941 300.742 210.118 303.084 210.118H308.556C308.556 210.118 307.378 226.498 306.214 230.402C305.05 234.307 312.061 230.015 314.015 228.062L324.945 217.138C324.945 217.138 322.604 205.826 326.109 198.03C329.615 190.235 323.433 187.494 322.604 178.909C322.29 176.567 322.593 174.183 323.482 171.993C324.371 169.803 325.816 167.882 327.675 166.42Z" fill="white"/>
<path d="M324.944 217.138C324.944 217.138 322.603 205.826 326.108 198.03C329.614 190.235 323.433 187.494 322.603 178.909C322.577 178.415 322.577 177.919 322.603 177.425C320.293 180.472 319.073 184.206 319.138 188.028C319.646 195.169 317.599 203.339 313.01 205.411C309.732 206.855 302.588 207.791 300.394 208.767C300.675 209.232 301.085 209.605 301.574 209.842C302.063 210.079 302.61 210.17 303.15 210.105H308.622C308.622 210.105 308.461 212.311 308.194 215.306C311.458 218.087 315.071 221.457 317.934 224.198L324.944 217.138Z" fill="white"/>
<path opacity="0.5" d="M324.944 217.138C324.944 217.138 322.603 205.826 326.108 198.03C329.614 190.235 323.433 187.494 322.603 178.909C322.577 178.415 322.577 177.919 322.603 177.425C320.293 180.472 319.073 184.206 319.138 188.028C319.646 195.169 317.599 203.339 313.01 205.411C309.732 206.855 302.588 207.791 300.394 208.767C300.675 209.232 301.085 209.605 301.574 209.842C302.063 210.079 302.61 210.17 303.15 210.105H308.622C308.622 210.105 308.461 212.311 308.194 215.306C311.458 218.087 315.071 221.457 317.934 224.198L324.944 217.138Z" fill="white"/>
<path d="M327.675 166.42C327.675 166.42 317.921 169.161 315.192 171.501C312.463 173.841 308.502 181.249 303.873 182.025C299.244 182.8 299.177 185.541 299.177 187.494C299.147 188.585 299.42 189.663 299.966 190.609C299.966 190.609 299.578 199.581 299.578 204.261C299.578 208.941 300.742 210.118 303.084 210.118H308.556C308.556 210.118 307.378 226.498 306.214 230.402C305.05 234.307 312.061 230.015 314.015 228.062L324.945 217.138C324.945 217.138 322.604 205.826 326.109 198.03C329.615 190.235 323.433 187.494 322.604 178.909C322.29 176.567 322.593 174.183 323.482 171.993C324.371 169.803 325.816 167.882 327.675 166.42V166.42Z" stroke="#393939" stroke-linecap="round" stroke-linejoin="round"/>
<path d="M313.439 182.613C312.623 183.95 311.499 184.699 310.923 184.338C310.348 183.977 310.522 182.627 311.325 181.316C312.128 180.006 313.265 179.23 313.853 179.591C314.442 179.952 314.241 181.303 313.439 182.613Z" fill="#393939"/>
<path d="M313.934 176.382C313.934 176.382 318.897 174.216 317.947 180.394" stroke="#393939" stroke-linecap="round" stroke-linejoin="round"/>
<path d="M309.278 192.561C304.635 194.113 302.775 192.561 302.775 192.561" stroke="#393939" stroke-linecap="round" stroke-linejoin="round"/>
<path d="M304.461 193.11V196.988C304.461 196.988 306.401 198.766 308.341 192.789C307.085 193.171 305.762 193.28 304.461 193.11Z" stroke="#393939" stroke-linecap="round" stroke-linejoin="round"/>
<path d="M324.556 194.514C324.556 194.514 335.875 191.398 334.31 196.466C332.744 201.534 323.379 205.05 322.269 201.146" fill="white"/>
<path d="M324.556 194.514C324.556 194.514 335.875 191.398 334.31 196.466C332.744 201.534 323.379 205.05 322.269 201.146" stroke="#393939" stroke-linecap="round" stroke-linejoin="round"/>
<path d="M268.378 279.462C268.378 279.462 284.955 300.134 286.922 317.771" stroke="#393939" stroke-linecap="round" stroke-linejoin="round"/>
<path d="M289.396 239.254C289.396 239.254 292.795 232.702 292.795 227.996" stroke="#393939" stroke-linecap="round" stroke-linejoin="round"/>
<path d="M344.773 248.748L336.344 238.586" stroke="#393939" stroke-linecap="round" stroke-linejoin="round"/>
<path d="M360.814 270.209C362.549 268.862 364.564 267.922 366.711 267.459C368.858 266.996 371.081 267.022 373.217 267.535" stroke="#393939" stroke-linecap="round" stroke-linejoin="round"/>
<path d="M348.493 282.845C346.834 279.882 344.86 277.107 342.606 274.568C339.769 271.733 332.143 272.174 331.274 274.14C330.404 276.105 335.635 275.664 338.9 278.927C342.164 282.189 341.736 285.024 341.736 285.024C338.819 286.148 335.688 286.604 332.571 286.361C328.437 285.706 322.978 284.623 322.55 286.147C322.122 287.672 323.634 289.41 327.126 290.279C330.618 291.148 334.752 290.934 336.063 291.148C337.374 291.362 340.639 294.852 343.261 294.852C345.884 294.852 349.148 294.21 350.018 294.852C350.887 295.494 353.282 298.556 355.905 298.556C358.527 298.556 360.922 295.882 361.136 292.9C361.35 289.918 359.611 287.017 355.905 285.492C352.199 283.968 348.493 282.845 348.493 282.845Z" fill="white" stroke="#393939" stroke-linecap="round" stroke-linejoin="round"/>
<path d="M354.714 283.072C354.714 283.072 346.017 275.637 343.89 275.424C341.763 275.21 335.475 279.154 336.919 280.772C338.364 282.39 340.572 280.01 342.512 280.291C344.452 280.571 349.616 285.038 350.539 285.185" fill="white"/>
<path d="M354.714 283.072C354.714 283.072 346.017 275.637 343.89 275.424C341.763 275.21 335.475 279.154 336.919 280.772C338.364 282.39 340.572 280.01 342.512 280.291C344.452 280.571 349.616 285.038 350.539 285.185" stroke="#393939" stroke-linecap="round" stroke-linejoin="round"/>
<path d="M355.034 286.549L352.359 282.19C352.359 282.19 349.522 286.99 346.258 286.335C342.993 285.68 349.964 278.486 351.489 278.058C353.014 277.63 354.981 276.721 356.72 280.01C357.97 282.66 358.921 285.441 359.557 288.3" fill="white"/>
<path d="M355.034 286.549L352.359 282.19C352.359 282.19 349.522 286.99 346.258 286.335C342.993 285.68 349.964 278.486 351.489 278.058C353.014 277.63 354.981 276.721 356.72 280.01C357.97 282.66 358.921 285.441 359.557 288.3" stroke="#393939" stroke-linecap="round" stroke-linejoin="round"/>
<path d="M360.922 290.48C360.922 290.48 359.825 283.5 358.513 282.631C357.202 281.762 353.068 283.286 351.329 285.305C349.59 287.325 350.673 287.699 352.854 287.699C354.041 287.756 355.207 287.364 356.119 286.603L357.644 289.879" fill="white"/>
<path d="M360.922 290.48C360.922 290.48 359.825 283.5 358.513 282.631C357.202 281.762 353.068 283.286 351.329 285.305C349.59 287.325 350.673 287.699 352.854 287.699C354.041 287.756 355.207 287.364 356.119 286.603L357.644 289.879" stroke="#393939" stroke-linecap="round" stroke-linejoin="round"/>
<path d="M223.731 391.14C221.141 385.007 217.773 379.232 213.71 373.957C207.462 366.095 196.972 363.033 190.283 358.741C183.593 354.449 173.893 348.605 169.599 353.673C165.304 358.741 169.211 365.707 176.288 373.57C183.366 381.432 195.795 387.61 196.972 389.174C198.15 390.738 209.228 403.776 213.523 404.163C217.817 404.551 222.165 398.935 223.731 391.14Z" fill="#393939" stroke="#393939" stroke-linecap="round" stroke-linejoin="round"/>
<path d="M220.493 399.523C218.259 391.594 210.138 384.882 204.572 380.643C197.882 375.602 193.561 368.529 181.439 359.356C176.168 355.344 172.489 353.807 170.027 353.325C169.874 353.448 169.731 353.582 169.599 353.726C165.304 358.794 169.211 365.761 176.288 373.623C183.366 381.485 195.795 387.663 196.972 389.227C198.15 390.792 209.228 403.829 213.523 404.217C215.971 404.391 218.5 402.559 220.493 399.523Z" fill="white" stroke="#393939" stroke-linecap="round" stroke-linejoin="round"/>
<path d="M201.281 383.237C193.588 376.832 176.503 357.604 172.65 355.906C169.439 354.476 168.167 357.952 167.833 359.142C168.154 363.354 171.472 368.275 176.235 373.57C183.259 381.365 195.742 387.61 196.919 389.174C198.097 390.739 209.175 403.776 213.469 404.164C213.986 404.299 214.534 404.237 215.006 403.99C215.479 403.742 215.842 403.327 216.025 402.826C218.166 399.671 209.014 389.642 201.281 383.237Z" fill="white" stroke="#393939" stroke-linecap="round" stroke-linejoin="round"/>
</svg>
